<svg width="32" height="29" viewBox="0 0 32 29" fill="none" xmlns="http://www.w3.org/2000/svg">
<path d="M31.6009 2.04071L6.91707 24.0152C7.45071 24.2468 8.03601 24.3686 8.62963 24.3713H12.8571C13.2107 24.3704 13.55 24.4957 13.7994 24.719L16.0903 26.7579C17.3327 27.8719 19.0226 28.4989 20.7856 28.5001C21.5135 28.4995 22.2365 28.3933 22.926 28.1856C25.303 27.4917 27.032 25.6567 27.3867 23.4515L31.89 4.40362C32.1051 3.60994 32.0028 2.77442 31.6009 2.04071Z" fill="#E6A923"/>
<path d="M27.0962 0.0919153L5.75756 4.09498C2.11154 4.54103 -0.438091 7.53462 0.0628138 10.7813C0.260664 12.0635 0.92381 13.253 1.95123 14.1684L4.24091 16.2073C4.49118 16.4301 4.63168 16.7324 4.63143 17.0476V20.812C4.63449 21.3406 4.77118 21.8619 5.03125 22.337L29.711 0.356606C28.9 0.00168251 27.9759 -0.0918325 27.0962 0.0919153Z" fill="#E6A923"/>
</svg>
